M48
; DRILL file KiCad 10.0.0 date 2026-04-23T21:33:11
; FORMAT={-:-/ absolute / metric / decimal}
; #@! TF.CreationDate,2026-04-23T21:33:11+02:00
; #@! TF.GenerationSoftware,Kicad,Pcbnew,10.0.0
; #@! TF.FileFunction,Plated,1,2,PTH
FMAT,2
METRIC
; #@! TA.AperFunction,Plated,PTH,ComponentDrill
T1C0.740
; #@! TA.AperFunction,Plated,PTH,ComponentDrill
T2C0.800
; #@! TA.AperFunction,Plated,PTH,ViaDrill
T3C0.850
; #@! TA.AperFunction,Plated,PTH,ComponentDrill
T4C1.000
%
G90
G05
T1
X155.567Y-31.198
X155.567Y-33.738
X155.567Y-36.278
X155.567Y-38.818
X155.567Y-41.358
X155.567Y-43.898
X155.567Y-46.438
X163.507Y-31.198
X163.507Y-33.738
X163.507Y-36.278
X163.507Y-38.818
X163.507Y-41.358
X163.507Y-43.898
X163.507Y-46.438
T2
X124.46Y-73.66
X124.46Y-76.2
X124.46Y-78.74
X124.464Y-25.403
X124.464Y-27.943
X124.464Y-30.483
X124.464Y-33.023
X124.464Y-35.563
X124.464Y-38.103
X124.464Y-40.643
X124.464Y-43.183
X124.464Y-45.723
X124.464Y-48.263
X124.464Y-50.803
X124.464Y-53.343
X124.464Y-55.883
X124.464Y-58.423
X124.464Y-60.963
X124.464Y-63.503
X124.464Y-66.043
X124.464Y-68.583
X124.464Y-71.123
X147.324Y-25.403
X147.324Y-27.943
X147.324Y-30.483
X147.324Y-33.023
X147.324Y-35.563
X147.324Y-38.103
X147.324Y-40.643
X147.324Y-43.183
X147.324Y-45.723
X147.324Y-48.263
X147.324Y-50.803
X147.324Y-53.343
X147.324Y-55.883
X147.324Y-58.423
X147.324Y-60.963
X147.324Y-63.503
X147.324Y-66.043
X147.324Y-68.583
X147.324Y-71.123
X147.324Y-73.663
X147.324Y-76.203
X147.324Y-78.743
T3
X87.92Y-75.728
X88.02Y-32.258
X111.76Y-33.02
X112.014Y-76.708
X112.522Y-80.01
X113.538Y-43.18
X114.3Y-86.718
X115.316Y-80.01
X121.412Y-61.976
X121.666Y-54.356
X124.46Y-81.28
X129.794Y-76.2
X140.208Y-26.543
X147.32Y-81.534
X149.86Y-40.64
X149.86Y-43.18
X149.86Y-45.72
X153.162Y-41.402
X158.75Y-46.736
X159.258Y-27.432
X161.036Y-37.338
X162.052Y-21.844
X165.354Y-21.844
T4
X89.075Y-95.758
X89.075Y-101.258
X89.2Y-52.704
X89.2Y-58.204
X89.419Y-65.318
X89.419Y-70.818
X89.553Y-22.44
X89.553Y-27.94
X92.575Y-95.758
X92.575Y-101.258
X92.7Y-52.704
X92.7Y-58.204
X92.919Y-65.318
X92.919Y-70.818
X93.053Y-22.44
X93.053Y-27.94
X96.075Y-95.758
X96.075Y-101.258
X96.2Y-52.704
X96.2Y-58.204
X96.419Y-65.318
X96.419Y-70.818
X96.553Y-22.44
X96.553Y-27.94
X99.575Y-95.758
X99.575Y-101.258
X99.7Y-52.704
X99.7Y-58.204
X99.919Y-65.318
X99.919Y-70.818
X100.053Y-22.44
X100.053Y-27.94
X103.075Y-95.758
X103.075Y-101.258
X103.2Y-52.704
X103.2Y-58.204
X103.419Y-65.318
X103.419Y-70.818
X103.553Y-22.44
X103.553Y-27.94
X106.575Y-95.758
X106.575Y-101.258
X106.7Y-52.704
X106.7Y-58.204
X106.919Y-65.318
X106.919Y-70.818
X107.053Y-22.44
X107.053Y-27.94
X110.075Y-95.758
X110.075Y-101.258
X110.2Y-52.704
X110.2Y-58.204
X110.419Y-65.318
X110.419Y-70.818
X110.553Y-22.44
X110.553Y-27.94
X113.575Y-95.758
X113.575Y-101.258
X113.7Y-52.704
X113.7Y-58.204
X113.919Y-65.318
X113.919Y-70.818
X114.053Y-22.44
X114.053Y-27.94
X153.186Y-23.0
X153.614Y-58.984
X153.614Y-62.484
X153.614Y-65.984
X153.614Y-69.484
X153.614Y-72.984
X153.614Y-76.484
X153.614Y-79.984
X153.614Y-83.484
X158.186Y-23.0
X159.114Y-58.984
X159.114Y-62.484
X159.114Y-65.984
X159.114Y-69.484
X159.114Y-72.984
X159.114Y-76.484
X159.114Y-79.984
X159.114Y-83.484
X168.361Y-59.06
X168.361Y-62.56
X168.361Y-66.06
X168.361Y-69.56
X168.361Y-73.06
X168.361Y-76.56
X168.361Y-80.06
X168.361Y-83.56
X169.672Y-23.028
X169.672Y-26.528
X169.672Y-30.028
X169.672Y-33.528
X169.672Y-37.028
X169.672Y-40.528
X169.672Y-44.028
X169.672Y-47.528
X173.861Y-59.06
X173.861Y-62.56
X173.861Y-66.06
X173.861Y-69.56
X173.861Y-73.06
X173.861Y-76.56
X173.861Y-80.06
X173.861Y-83.56
X175.172Y-23.028
X175.172Y-26.528
X175.172Y-30.028
X175.172Y-33.528
X175.172Y-37.028
X175.172Y-40.528
X175.172Y-44.028
X175.172Y-47.528
M30
